<svg xmlns="http://www.w3.org/2000/svg" xmlns:xlink="http://www.w3.org/1999/xlink" contentStyleType="text/css" height="666px" preserveAspectRatio="none" style="width:419px;height:666px;background:#FFFFFF;" version="1.1" viewBox="0 0 419 666" width="419px" zoomAndPan="magnify"><defs/><g><path d="M19.5,7 L393.9116,7 A12.5,12.5 0 0 1 406.4116,19.5 L406.4116,33.2969 L7,33.2969 L7,19.5 A12.5,12.5 0 0 1 19.5,7 " fill="#F1F1F1" style="stroke:#F1F1F1;stroke-width:1.0;"/><rect fill="none" height="653.5013" rx="12.5" ry="12.5" style="stroke:#181818;stroke-width:0.5;" width="399.4116" x="7" y="7"/><line style="stroke:#181818;stroke-width:0.5;" x1="7" x2="406.4116" y1="33.2969" y2="33.2969"/><text fill="#000000" font-family="sans-serif" font-size="14" lengthAdjust="spacing" textLength="54.2568" x="179.5774" y="24.9951">Fill_Cup</text><ellipse cx="102.81" cy="54.2969" fill="#222222" rx="10" ry="10" style="stroke:#222222;stroke-width:1.0;"/><g id="Fill_Cup.Idle"><rect fill="#F1F1F1" height="50.2656" rx="12.5" ry="12.5" style="stroke:#181818;stroke-width:0.5;" width="137.0527" x="34.28" y="101.2969"/><line style="stroke:#181818;stroke-width:0.5;" x1="34.28" x2="171.3327" y1="127.5938" y2="127.5938"/><text fill="#000000" font-family="sans-serif" font-size="14" lengthAdjust="spacing" textLength="25.5186" x="90.0471" y="119.292">Idle</text><text fill="#000000" font-family="sans-serif" font-size="12" lengthAdjust="spacing" textLength="117.0527" x="39.28" y="143.7324">gvl.FillCup = FALSE</text></g><g id="Fill_Cup.Heating"><rect fill="#F1F1F1" height="64.2344" rx="12.5" ry="12.5" style="stroke:#181818;stroke-width:0.5;" width="124.8945" x="40.36" y="219.5569"/><line style="stroke:#181818;stroke-width:0.5;" x1="40.36" x2="165.2545" y1="245.8538" y2="245.8538"/><text fill="#000000" font-family="sans-serif" font-size="14" lengthAdjust="spacing" textLength="54.8584" x="75.3781" y="237.552">Heating</text><text fill="#000000" font-family="sans-serif" font-size="12" lengthAdjust="spacing" textLength="104.8945" x="45.36" y="261.9924">Start verwarming</text><text fill="#000000" font-family="sans-serif" font-size="12" lengthAdjust="spacing" textLength="66.4336" x="45.36" y="275.9612">Timer start</text></g><g id="Fill_Cup.SelectingStrength"><rect fill="#F1F1F1" height="64.2344" rx="12.5" ry="12.5" style="stroke:#181818;stroke-width:0.5;" width="167.6152" x="19" y="351.7969"/><line style="stroke:#181818;stroke-width:0.5;" x1="19" x2="186.6152" y1="378.0938" y2="378.0938"/><text fill="#000000" font-family="sans-serif" font-size="14" lengthAdjust="spacing" textLength="125.7061" x="39.9546" y="369.792">SelectingStrength</text><text fill="#000000" font-family="sans-serif" font-size="12" lengthAdjust="spacing" textLength="147.6152" x="24" y="394.2324">gvl.LamploopOn = TRUE</text><text fill="#000000" font-family="sans-serif" font-size="12" lengthAdjust="spacing" textLength="131.1328" x="24" y="408.2012">Selectie koffie sterkte</text></g><g id="Fill_Cup.Filling"><rect fill="#F1F1F1" height="64.2344" rx="12.5" ry="12.5" style="stroke:#181818;stroke-width:0.5;" width="158.3105" x="23.65" y="469.0269"/><line style="stroke:#181818;stroke-width:0.5;" x1="23.65" x2="181.9605" y1="495.3238" y2="495.3238"/><text fill="#000000" font-family="sans-serif" font-size="14" lengthAdjust="spacing" textLength="41.3711" x="82.1197" y="487.022">Filling</text><text fill="#000000" font-family="sans-serif" font-size="12" lengthAdjust="spacing" textLength="85.1777" x="28.65" y="511.4624">Filling = TRUE</text><text fill="#000000" font-family="sans-serif" font-size="12" lengthAdjust="spacing" textLength="138.3105" x="28.65" y="525.4312">ShowStrength := TRUE</text></g><g id="Fill_Cup.Done"><rect fill="#F1F1F1" height="64.2344" rx="12.5" ry="12.5" style="stroke:#181818;stroke-width:0.5;" width="135.2656" x="35.17" y="586.2669"/><line style="stroke:#181818;stroke-width:0.5;" x1="35.17" x2="170.4356" y1="612.5638" y2="612.5638"/><text fill="#000000" font-family="sans-serif" font-size="14" lengthAdjust="spacing" textLength="36.832" x="84.3868" y="604.262">Done</text><text fill="#000000" font-family="sans-serif" font-size="12" lengthAdjust="spacing" textLength="115.2656" x="40.17" y="628.7024">Cup_Filled := TRUE</text><text fill="#000000" font-family="sans-serif" font-size="12" lengthAdjust="spacing" textLength="94.1836" x="40.17" y="642.6712">Filling := FALSE</text></g><!--link *start*Fill_Cup to Idle--><g id="link_*start*Fill_Cup_Idle"><path d="M102.81,64.7569 C102.81,74.0269 102.81,82.5469 102.81,95.0669 " fill="none" id="*start*Fill_Cup-to-Idle" style="stroke:#181818;stroke-width:1.0;"/><polygon fill="#181818" points="102.81,101.0669,106.81,92.0669,102.81,96.0669,98.81,92.0669,102.81,101.0669" style="stroke:#181818;stroke-width:1.0;"/></g><!--link Idle to Heating--><g id="link_Idle_Heating"><path d="M102.81,151.7769 C102.81,171.1369 102.81,192.3669 102.81,213.3469 " fill="none" id="Idle-to-Heating" style="stroke:#181818;stroke-width:1.0;"/><polygon fill="#181818" points="102.81,219.3469,106.81,210.3469,102.81,214.3469,98.81,210.3469,102.81,219.3469" style="stroke:#181818;stroke-width:1.0;"/><text fill="#000000" font-family="sans-serif" font-size="13" lengthAdjust="spacing" textLength="292.6016" x="103.81" y="182.6238">gvl.FillCup = TRUE and Water_Warm = TRUE</text><text fill="#000000" font-family="sans-serif" font-size="13" lengthAdjust="spacing" textLength="203.5313" x="148.3452" y="197.7566">and Ingredients_Ready = TRUE</text></g><!--link Heating to SelectingStrength--><g id="link_Heating_SelectingStrength"><path d="M102.81,284.2069 C102.81,304.6769 102.81,325.2569 102.81,345.6769 " fill="none" id="Heating-to-SelectingStrength" style="stroke:#181818;stroke-width:1.0;"/><polygon fill="#181818" points="102.81,351.6769,106.81,342.6769,102.81,346.6769,98.81,342.6769,102.81,351.6769" style="stroke:#181818;stroke-width:1.0;"/><text fill="#000000" font-family="sans-serif" font-size="13" lengthAdjust="spacing" textLength="83.3892" x="109.5356" y="314.8638">Timer &gt;= PT</text><text fill="#000000" font-family="sans-serif" font-size="13" lengthAdjust="spacing" textLength="94.8403" x="103.81" y="329.9966">Strength == 0</text></g><!--link SelectingStrength to Filling--><g id="link_SelectingStrength_Filling"><path d="M102.81,416.3969 C102.81,432.6569 102.81,446.4369 102.81,462.6969 " fill="none" id="SelectingStrength-to-Filling" style="stroke:#181818;stroke-width:1.0;"/><polygon fill="#181818" points="102.81,468.6969,106.81,459.6969,102.81,463.6969,98.81,459.6969,102.81,468.6969" style="stroke:#181818;stroke-width:1.0;"/><text fill="#000000" font-family="sans-serif" font-size="13" lengthAdjust="spacing" textLength="83.9478" x="103.81" y="447.0938">Strength &gt; 0</text></g><!--link Filling to Done--><g id="link_Filling_Done"><path d="M102.81,533.6369 C102.81,549.8969 102.81,563.6769 102.81,579.9269 " fill="none" id="Filling-to-Done" style="stroke:#181818;stroke-width:1.0;"/><polygon fill="#181818" points="102.81,585.9269,106.81,576.9269,102.81,580.9269,98.81,576.9269,102.81,585.9269" style="stroke:#181818;stroke-width:1.0;"/><text fill="#000000" font-family="sans-serif" font-size="13" lengthAdjust="spacing" textLength="83.3892" x="103.81" y="564.3338">Timer &gt;= PT</text></g><!--SRC=[RL71IWCn4Btx5KEFGiMpi0kYBHOAbkvA3wuimPrkbsOdIvAsYFZlPcAoiRIv97dptfitYR728apcdPJrqs6OW30GB_1z0swzttx0T9h3ef7e0Jx00xH7USTKPcOmVrmMCrzE75QzeB0TjHVySlqs0q4DR5m0NM-4xWDQ4SCBQZKs7P8rzHf5ynMgtZsP5bPe2qVK9sVWe8hAhaSDXl4K9meuKO4IF_bMM8tKsfsp-HFb6QpAYaOyo-3Uowz9U9obw0UfrF1AO_P0HTYhxTPjnastjvYYN7fnA7wOE560yz0ybU9fxBLJfvJet_kSwTZ-MH6UZ-af0NO_KZCRc-XIqTWrVktFBm00]--></g></svg>