<svg xmlns="http://www.w3.org/2000/svg" xmlns:xlink="http://www.w3.org/1999/xlink" contentStyleType="text/css" height="994px" preserveAspectRatio="none" style="width:918px;height:994px;background:#FFFFFF;" version="1.1" viewBox="0 0 918 994" width="918px" zoomAndPan="magnify"><defs/><g><line style="stroke:#181818;stroke-width:0.5;stroke-dasharray:5.0,5.0;" x1="42" x2="42" y1="81.2969" y2="913.6172"/><line style="stroke:#181818;stroke-width:0.5;stroke-dasharray:5.0,5.0;" x1="159.4189" x2="159.4189" y1="81.2969" y2="913.6172"/><line style="stroke:#181818;stroke-width:0.5;stroke-dasharray:5.0,5.0;" x1="224.6445" x2="224.6445" y1="81.2969" y2="913.6172"/><line style="stroke:#181818;stroke-width:0.5;stroke-dasharray:5.0,5.0;" x1="353.1167" x2="353.1167" y1="81.2969" y2="913.6172"/><line style="stroke:#181818;stroke-width:0.5;stroke-dasharray:5.0,5.0;" x1="475.0669" x2="475.0669" y1="81.2969" y2="913.6172"/><line style="stroke:#181818;stroke-width:0.5;stroke-dasharray:5.0,5.0;" x1="578.3237" x2="578.3237" y1="81.2969" y2="913.6172"/><line style="stroke:#181818;stroke-width:0.5;stroke-dasharray:5.0,5.0;" x1="694.9663" x2="694.9663" y1="81.2969" y2="913.6172"/><line style="stroke:#181818;stroke-width:0.5;stroke-dasharray:5.0,5.0;" x1="789.687" x2="789.687" y1="81.2969" y2="913.6172"/><line style="stroke:#181818;stroke-width:0.5;stroke-dasharray:5.0,5.0;" x1="872.0669" x2="872.0669" y1="81.2969" y2="913.6172"/><text fill="#000000" font-family="sans-serif" font-size="14" lengthAdjust="spacing" textLength="69.3438" x="5" y="77.9951">Gebruiker</text><ellipse cx="42.6719" cy="13.5" fill="#E2E2F0" rx="8" ry="8" style="stroke:#181818;stroke-width:0.5;"/><path d="M42.6719,21.5 L42.6719,48.5 M29.6719,29.5 L55.6719,29.5 M42.6719,48.5 L29.6719,63.5 M42.6719,48.5 L55.6719,63.5 " fill="none" style="stroke:#181818;stroke-width:0.5;"/><text fill="#000000" font-family="sans-serif" font-size="14" lengthAdjust="spacing" textLength="69.3438" x="5" y="925.6123">Gebruiker</text><ellipse cx="42.6719" cy="937.4141" fill="#E2E2F0" rx="8" ry="8" style="stroke:#181818;stroke-width:0.5;"/><path d="M42.6719,945.4141 L42.6719,972.4141 M29.6719,953.4141 L55.6719,953.4141 M42.6719,972.4141 L29.6719,987.4141 M42.6719,972.4141 L55.6719,987.4141 " fill="none" style="stroke:#181818;stroke-width:0.5;"/><rect fill="#E2E2F0" height="30.2969" rx="2.5" ry="2.5" style="stroke:#181818;stroke-width:0.5;" width="42.2256" x="138.4189" y="50"/><text fill="#000000" font-family="sans-serif" font-size="14" lengthAdjust="spacing" textLength="28.2256" x="145.4189" y="69.9951">GVL</text><rect fill="#E2E2F0" height="30.2969" rx="2.5" ry="2.5" style="stroke:#181818;stroke-width:0.5;" width="42.2256" x="138.4189" y="912.6172"/><text fill="#000000" font-family="sans-serif" font-size="14" lengthAdjust="spacing" textLength="28.2256" x="145.4189" y="932.6123">GVL</text><rect fill="#E2E2F0" height="30.2969" rx="2.5" ry="2.5" style="stroke:#181818;stroke-width:0.5;" width="68.8584" x="190.6445" y="50"/><text fill="#000000" font-family="sans-serif" font-size="14" lengthAdjust="spacing" textLength="54.8584" x="197.6445" y="69.9951">Heating</text><rect fill="#E2E2F0" height="30.2969" rx="2.5" ry="2.5" style="stroke:#181818;stroke-width:0.5;" width="68.8584" x="190.6445" y="912.6172"/><text fill="#000000" font-family="sans-serif" font-size="14" lengthAdjust="spacing" textLength="54.8584" x="197.6445" y="932.6123">Heating</text><rect fill="#E2E2F0" height="30.2969" rx="2.5" ry="2.5" style="stroke:#181818;stroke-width:0.5;" width="154.9502" x="276.1167" y="50"/><text fill="#000000" font-family="sans-serif" font-size="14" lengthAdjust="spacing" textLength="140.9502" x="283.1167" y="69.9951">Prepare_Ingredients</text><rect fill="#E2E2F0" height="30.2969" rx="2.5" ry="2.5" style="stroke:#181818;stroke-width:0.5;" width="154.9502" x="276.1167" y="912.6172"/><text fill="#000000" font-family="sans-serif" font-size="14" lengthAdjust="spacing" textLength="140.9502" x="283.1167" y="932.6123">Prepare_Ingredients</text><rect fill="#E2E2F0" height="30.2969" rx="2.5" ry="2.5" style="stroke:#181818;stroke-width:0.5;" width="68.2568" x="441.0669" y="50"/><text fill="#000000" font-family="sans-serif" font-size="14" lengthAdjust="spacing" textLength="54.2568" x="448.0669" y="69.9951">Fill_Cup</text><rect fill="#E2E2F0" height="30.2969" rx="2.5" ry="2.5" style="stroke:#181818;stroke-width:0.5;" width="68.2568" x="441.0669" y="912.6172"/><text fill="#000000" font-family="sans-serif" font-size="14" lengthAdjust="spacing" textLength="54.2568" x="448.0669" y="932.6123">Fill_Cup</text><rect fill="#E2E2F0" height="30.2969" rx="2.5" ry="2.5" style="stroke:#181818;stroke-width:0.5;" width="119.6426" x="519.3237" y="50"/><text fill="#000000" font-family="sans-serif" font-size="14" lengthAdjust="spacing" textLength="105.6426" x="526.3237" y="69.9951">Show_Strength</text><rect fill="#E2E2F0" height="30.2969" rx="2.5" ry="2.5" style="stroke:#181818;stroke-width:0.5;" width="119.6426" x="519.3237" y="912.6172"/><text fill="#000000" font-family="sans-serif" font-size="14" lengthAdjust="spacing" textLength="105.6426" x="526.3237" y="932.6123">Show_Strength</text><rect fill="#E2E2F0" height="30.2969" rx="2.5" ry="2.5" style="stroke:#181818;stroke-width:0.5;" width="93.7207" x="648.9663" y="50"/><text fill="#000000" font-family="sans-serif" font-size="14" lengthAdjust="spacing" textLength="79.7207" x="655.9663" y="69.9951">Lamp_Loop</text><rect fill="#E2E2F0" height="30.2969" rx="2.5" ry="2.5" style="stroke:#181818;stroke-width:0.5;" width="93.7207" x="648.9663" y="912.6172"/><text fill="#000000" font-family="sans-serif" font-size="14" lengthAdjust="spacing" textLength="79.7207" x="655.9663" y="932.6123">Lamp_Loop</text><rect fill="#E2E2F0" height="30.2969" rx="2.5" ry="2.5" style="stroke:#181818;stroke-width:0.5;" width="75.3799" x="752.687" y="50"/><text fill="#000000" font-family="sans-serif" font-size="14" lengthAdjust="spacing" textLength="61.3799" x="759.687" y="69.9951">Cleaning</text><rect fill="#E2E2F0" height="30.2969" rx="2.5" ry="2.5" style="stroke:#181818;stroke-width:0.5;" width="75.3799" x="752.687" y="912.6172"/><text fill="#000000" font-family="sans-serif" font-size="14" lengthAdjust="spacing" textLength="61.3799" x="759.687" y="932.6123">Cleaning</text><rect fill="#E2E2F0" height="30.2969" rx="2.5" ry="2.5" style="stroke:#181818;stroke-width:0.5;" width="68.8584" x="838.0669" y="50"/><text fill="#000000" font-family="sans-serif" font-size="14" lengthAdjust="spacing" textLength="54.8584" x="845.0669" y="69.9951">Heating</text><rect fill="#E2E2F0" height="30.2969" rx="2.5" ry="2.5" style="stroke:#181818;stroke-width:0.5;" width="68.8584" x="838.0669" y="912.6172"/><text fill="#000000" font-family="sans-serif" font-size="14" lengthAdjust="spacing" textLength="54.8584" x="845.0669" y="932.6123">Heating</text><rect fill="#EEEEEE" height="3" style="stroke:#EEEEEE;stroke-width:1.0;" width="911.9253" x="0" y="111.8633"/><line style="stroke:#000000;stroke-width:1.0;" x1="0" x2="911.9253" y1="111.8633" y2="111.8633"/><line style="stroke:#000000;stroke-width:1.0;" x1="0" x2="911.9253" y1="114.8633" y2="114.8633"/><rect fill="#EEEEEE" height="23.1328" style="stroke:#000000;stroke-width:2.0;" width="182.124" x="364.9006" y="101.2969"/><text fill="#000000" font-family="sans-serif" font-size="13" font-weight="bold" lengthAdjust="spacing" textLength="163.5981" x="370.9006" y="117.3638">Start van koffieproces</text><polygon fill="#181818" points="147.5317,151.5625,157.5317,155.5625,147.5317,159.5625,151.5317,155.5625" style="stroke:#181818;stroke-width:1.0;"/><line style="stroke:#181818;stroke-width:1.0;" x1="42.6719" x2="153.5317" y1="155.5625" y2="155.5625"/><text fill="#000000" font-family="sans-serif" font-size="13" lengthAdjust="spacing" textLength="80.7358" x="49.6719" y="150.4966">Start (TRUE)</text><polygon fill="#181818" points="860.4961,180.6953,870.4961,184.6953,860.4961,188.6953,864.4961,184.6953" style="stroke:#181818;stroke-width:1.0;"/><line style="stroke:#181818;stroke-width:1.0;" x1="159.5317" x2="866.4961" y1="184.6953" y2="184.6953"/><text fill="#000000" font-family="sans-serif" font-size="13" lengthAdjust="spacing" textLength="113.6357" x="166.5317" y="179.6294">Start verwarming</text><rect fill="#EEEEEE" height="3" style="stroke:#EEEEEE;stroke-width:1.0;" width="911.9253" x="0" y="213.2617"/><line style="stroke:#000000;stroke-width:1.0;" x1="0" x2="911.9253" y1="213.2617" y2="213.2617"/><line style="stroke:#000000;stroke-width:1.0;" x1="0" x2="911.9253" y1="216.2617" y2="216.2617"/><rect fill="#EEEEEE" height="23.1328" style="stroke:#000000;stroke-width:2.0;" width="180.4038" x="365.7607" y="202.6953"/><text fill="#000000" font-family="sans-serif" font-size="13" font-weight="bold" lengthAdjust="spacing" textLength="161.8779" x="371.7607" y="218.7622">Verwarmen van water</text><polygon fill="#181818" points="170.5317,252.9609,160.5317,256.9609,170.5317,260.9609,166.5317,256.9609" style="stroke:#181818;stroke-width:1.0;"/><line style="stroke:#181818;stroke-width:1.0;" x1="164.5317" x2="871.4961" y1="256.9609" y2="256.9609"/><text fill="#000000" font-family="sans-serif" font-size="13" lengthAdjust="spacing" textLength="133.5674" x="176.5317" y="251.895">Water_Warm (TRUE)</text><rect fill="#EEEEEE" height="3" style="stroke:#EEEEEE;stroke-width:1.0;" width="911.9253" x="0" y="285.5273"/><line style="stroke:#000000;stroke-width:1.0;" x1="0" x2="911.9253" y1="285.5273" y2="285.5273"/><line style="stroke:#000000;stroke-width:1.0;" x1="0" x2="911.9253" y1="288.5273" y2="288.5273"/><rect fill="#EEEEEE" height="23.1328" style="stroke:#000000;stroke-width:2.0;" width="247.9619" x="331.9817" y="274.9609"/><text fill="#000000" font-family="sans-serif" font-size="13" font-weight="bold" lengthAdjust="spacing" textLength="229.436" x="337.9817" y="291.0278">Voorbereiden van ingredi&#235;nten</text><polygon fill="#181818" points="147.5317,325.2266,157.5317,329.2266,147.5317,333.2266,151.5317,329.2266" style="stroke:#181818;stroke-width:1.0;"/><line style="stroke:#181818;stroke-width:1.0;" x1="42.6719" x2="153.5317" y1="329.2266" y2="329.2266"/><text fill="#000000" font-family="sans-serif" font-size="13" lengthAdjust="spacing" textLength="80.7358" x="49.6719" y="324.1606">Start (TRUE)</text><polygon fill="#181818" points="341.5918,354.3594,351.5918,358.3594,341.5918,362.3594,345.5918,358.3594" style="stroke:#181818;stroke-width:1.0;"/><line style="stroke:#181818;stroke-width:1.0;" x1="159.5317" x2="347.5918" y1="358.3594" y2="358.3594"/><text fill="#000000" font-family="sans-serif" font-size="13" lengthAdjust="spacing" textLength="126.3945" x="166.5317" y="353.2935">Start voorbereiding</text><polygon fill="#181818" points="170.5317,383.4922,160.5317,387.4922,170.5317,391.4922,166.5317,387.4922" style="stroke:#181818;stroke-width:1.0;"/><line style="stroke:#181818;stroke-width:1.0;" x1="164.5317" x2="352.5918" y1="387.4922" y2="387.4922"/><text fill="#000000" font-family="sans-serif" font-size="13" lengthAdjust="spacing" textLength="170.0601" x="176.5317" y="382.4263">Ingredients_Ready (TRUE)</text><rect fill="#EEEEEE" height="3" style="stroke:#EEEEEE;stroke-width:1.0;" width="911.9253" x="0" y="416.0586"/><line style="stroke:#000000;stroke-width:1.0;" x1="0" x2="911.9253" y1="416.0586" y2="416.0586"/><line style="stroke:#000000;stroke-width:1.0;" x1="0" x2="911.9253" y1="419.0586" y2="419.0586"/><rect fill="#EEEEEE" height="23.1328" style="stroke:#000000;stroke-width:2.0;" width="138.2363" x="386.8445" y="405.4922"/><text fill="#000000" font-family="sans-serif" font-size="13" font-weight="bold" lengthAdjust="spacing" textLength="119.7104" x="392.8445" y="421.5591">Koffiekop vullen</text><polygon fill="#181818" points="147.5317,455.7578,157.5317,459.7578,147.5317,463.7578,151.5317,459.7578" style="stroke:#181818;stroke-width:1.0;"/><line style="stroke:#181818;stroke-width:1.0;" x1="42.6719" x2="153.5317" y1="459.7578" y2="459.7578"/><text fill="#000000" font-family="sans-serif" font-size="13" lengthAdjust="spacing" textLength="92.8599" x="49.6719" y="454.6919">FillCup (TRUE)</text><polygon fill="#181818" points="463.1953,484.8906,473.1953,488.8906,463.1953,492.8906,467.1953,488.8906" style="stroke:#181818;stroke-width:1.0;"/><line style="stroke:#181818;stroke-width:1.0;" x1="159.5317" x2="469.1953" y1="488.8906" y2="488.8906"/><text fill="#000000" font-family="sans-serif" font-size="13" lengthAdjust="spacing" textLength="114.7593" x="166.5317" y="483.8247">Start vullen kopje</text><polygon fill="#181818" points="170.5317,514.0234,160.5317,518.0234,170.5317,522.0234,166.5317,518.0234" style="stroke:#181818;stroke-width:1.0;"/><line style="stroke:#181818;stroke-width:1.0;" x1="164.5317" x2="474.1953" y1="518.0234" y2="518.0234"/><text fill="#000000" font-family="sans-serif" font-size="13" lengthAdjust="spacing" textLength="286.6855" x="176.5317" y="512.9575">Controleer Water_Warm, Ingredients_Ready</text><polygon fill="#181818" points="170.5317,543.1563,160.5317,547.1563,170.5317,551.1563,166.5317,547.1563" style="stroke:#181818;stroke-width:1.0;"/><line style="stroke:#181818;stroke-width:1.0;" x1="164.5317" x2="474.1953" y1="547.1563" y2="547.1563"/><text fill="#000000" font-family="sans-serif" font-size="13" lengthAdjust="spacing" textLength="134.9766" x="176.5317" y="542.0903">LampLoopOn (TRUE)</text><polygon fill="#181818" points="683.8267,572.2891,693.8267,576.2891,683.8267,580.2891,687.8267,576.2891" style="stroke:#181818;stroke-width:1.0;"/><line style="stroke:#181818;stroke-width:1.0;" x1="475.1953" x2="689.8267" y1="576.2891" y2="576.2891"/><text fill="#000000" font-family="sans-serif" font-size="13" lengthAdjust="spacing" textLength="133.9292" x="482.1953" y="571.2231">Start Lampen (Loop)</text><polygon fill="#181818" points="170.5317,601.4219,160.5317,605.4219,170.5317,609.4219,166.5317,605.4219" style="stroke:#181818;stroke-width:1.0;"/><line style="stroke:#181818;stroke-width:1.0;" x1="164.5317" x2="694.8267" y1="605.4219" y2="605.4219"/><text fill="#000000" font-family="sans-serif" font-size="13" lengthAdjust="spacing" textLength="101.5942" x="176.5317" y="600.356">Stel Strength in</text><polygon fill="#181818" points="170.5317,630.5547,160.5317,634.5547,170.5317,638.5547,166.5317,634.5547" style="stroke:#181818;stroke-width:1.0;"/><line style="stroke:#181818;stroke-width:1.0;" x1="164.5317" x2="474.1953" y1="634.5547" y2="634.5547"/><text fill="#000000" font-family="sans-serif" font-size="13" lengthAdjust="spacing" textLength="115.6099" x="176.5317" y="629.4888">Cup_Filled (TRUE)</text><rect fill="#EEEEEE" height="3" style="stroke:#EEEEEE;stroke-width:1.0;" width="911.9253" x="0" y="663.1211"/><line style="stroke:#000000;stroke-width:1.0;" x1="0" x2="911.9253" y1="663.1211" y2="663.1211"/><line style="stroke:#000000;stroke-width:1.0;" x1="0" x2="911.9253" y1="666.1211" y2="666.1211"/><rect fill="#EEEEEE" height="23.1328" style="stroke:#000000;stroke-width:2.0;" width="200.2212" x="355.8521" y="652.5547"/><text fill="#000000" font-family="sans-serif" font-size="13" font-weight="bold" lengthAdjust="spacing" textLength="181.6953" x="361.8521" y="668.6216">Koffiesterkte weergeven</text><polygon fill="#181818" points="170.5317,702.8203,160.5317,706.8203,170.5317,710.8203,166.5317,706.8203" style="stroke:#181818;stroke-width:1.0;"/><line style="stroke:#181818;stroke-width:1.0;" x1="164.5317" x2="474.1953" y1="706.8203" y2="706.8203"/><text fill="#000000" font-family="sans-serif" font-size="13" lengthAdjust="spacing" textLength="140.5752" x="176.5317" y="701.7544">ShowStrength (TRUE)</text><polygon fill="#181818" points="567.145,731.9531,577.145,735.9531,567.145,739.9531,571.145,735.9531" style="stroke:#181818;stroke-width:1.0;"/><line style="stroke:#181818;stroke-width:1.0;" x1="159.5317" x2="573.145" y1="735.9531" y2="735.9531"/><text fill="#000000" font-family="sans-serif" font-size="13" lengthAdjust="spacing" textLength="118.3013" x="166.5317" y="730.8872">Toon koffiesterkte</text><polygon fill="#181818" points="170.5317,761.0859,160.5317,765.0859,170.5317,769.0859,166.5317,765.0859" style="stroke:#181818;stroke-width:1.0;"/><line style="stroke:#181818;stroke-width:1.0;" x1="164.5317" x2="578.145" y1="765.0859" y2="765.0859"/><text fill="#000000" font-family="sans-serif" font-size="13" lengthAdjust="spacing" textLength="237.0913" x="176.5317" y="760.02">Zet Lamp aan op basis van Strength</text><rect fill="#EEEEEE" height="3" style="stroke:#EEEEEE;stroke-width:1.0;" width="911.9253" x="0" y="793.6523"/><line style="stroke:#000000;stroke-width:1.0;" x1="0" x2="911.9253" y1="793.6523" y2="793.6523"/><line style="stroke:#000000;stroke-width:1.0;" x1="0" x2="911.9253" y1="796.6523" y2="796.6523"/><rect fill="#EEEEEE" height="23.1328" style="stroke:#000000;stroke-width:2.0;" width="160.4785" x="375.7234" y="783.0859"/><text fill="#000000" font-family="sans-serif" font-size="13" font-weight="bold" lengthAdjust="spacing" textLength="141.9526" x="381.7234" y="799.1528">Kleine schoonmaak</text><polygon fill="#181818" points="170.5317,833.3516,160.5317,837.3516,170.5317,841.3516,166.5317,837.3516" style="stroke:#181818;stroke-width:1.0;"/><line style="stroke:#181818;stroke-width:1.0;" x1="164.5317" x2="474.1953" y1="837.3516" y2="837.3516"/><text fill="#000000" font-family="sans-serif" font-size="13" lengthAdjust="spacing" textLength="56.9956" x="176.5317" y="832.2856">Cleaning</text><polygon fill="#181818" points="170.5317,862.4844,160.5317,866.4844,170.5317,870.4844,166.5317,866.4844" style="stroke:#181818;stroke-width:1.0;"/><line style="stroke:#181818;stroke-width:1.0;" x1="164.5317" x2="789.377" y1="866.4844" y2="866.4844"/><text fill="#000000" font-family="sans-serif" font-size="13" lengthAdjust="spacing" textLength="173.437" x="176.5317" y="861.4185">Reset schoonmaak gereed</text><polygon fill="#181818" points="170.5317,891.6172,160.5317,895.6172,170.5317,899.6172,166.5317,895.6172" style="stroke:#181818;stroke-width:1.0;"/><line style="stroke:#181818;stroke-width:1.0;" x1="164.5317" x2="789.377" y1="895.6172" y2="895.6172"/><text fill="#000000" font-family="sans-serif" font-size="13" lengthAdjust="spacing" textLength="180.9526" x="176.5317" y="890.5513">Voer kleine schoonmaak uit</text><!--SRC=[ZLDBJiCm4Dtx55PNhGGNg1Gs5HH49L2_4fl8JORK9BKZsqd4cJW65sESn2OcMR2BPzwyUVDcmX8Z5JreK9HfEbl3MLKy1pKZ9LE69xnamj3rSHEyTmOVRS4ZCCD55i9V5U0JuYUHAKWv2AE3_0ClYdXLbI7dHJRnpYWGcRa4cGsxbl56oX2_Ae09R4r85FM2QYPeBj_VEPHA9g1f595sjDixEyAoXyttsyFzWc349le9NB86rJ1rTSJ7xWcY9M-OGJPaxOiyySacuXCY7NjRBAKwWmAUzlMyC-JxInYC_4VTX9LUgMUtOYU0ddWGYxV0qi-XoEVMi5oMjAwAOaAMtHOkwuymjqElfYj6dWyWBkavLb8O9Gj0sb-hRiR2nfLs-NRtBy8964ByQJWPDe0ovZQs83uzy1WAwguCzp4XjIfZ6uHqx996wRa1sk0W6TITMIC6Uyc-HUXQSEHBkfVINMnFJGA4fto3RZJAy8fmd3FJNBSdvV-OLcK1N03LoGM9hupba_hyd-C-V6OB6XiDoZEyBqZ7mAF4JUQZRXKtFm00]--></g></svg>