<svg xmlns="http://www.w3.org/2000/svg" xmlns:xlink="http://www.w3.org/1999/xlink" contentStyleType="text/css" height="747px" preserveAspectRatio="none" style="width:876px;height:747px;background:#FFFFFF;" version="1.1" viewBox="0 0 876 747" width="876px" zoomAndPan="magnify"><defs/><g><line style="stroke:#181818;stroke-width:0.5;stroke-dasharray:5.0,5.0;" x1="42" x2="42" y1="81.2969" y2="666.5547"/><line style="stroke:#181818;stroke-width:0.5;stroke-dasharray:5.0,5.0;" x1="168.6802" x2="168.6802" y1="81.2969" y2="666.5547"/><line style="stroke:#181818;stroke-width:0.5;stroke-dasharray:5.0,5.0;" x1="495.5874" x2="495.5874" y1="81.2969" y2="666.5547"/><line style="stroke:#181818;stroke-width:0.5;stroke-dasharray:5.0,5.0;" x1="825.7002" x2="825.7002" y1="81.2969" y2="666.5547"/><text fill="#000000" font-family="sans-serif" font-size="14" lengthAdjust="spacing" textLength="69.3438" x="5" y="77.9951">Gebruiker</text><ellipse cx="42.6719" cy="13.5" fill="#E2E2F0" rx="8" ry="8" style="stroke:#181818;stroke-width:0.5;"/><path d="M42.6719,21.5 L42.6719,48.5 M29.6719,29.5 L55.6719,29.5 M42.6719,48.5 L29.6719,63.5 M42.6719,48.5 L55.6719,63.5 " fill="none" style="stroke:#181818;stroke-width:0.5;"/><text fill="#000000" font-family="sans-serif" font-size="14" lengthAdjust="spacing" textLength="69.3438" x="5" y="678.5498">Gebruiker</text><ellipse cx="42.6719" cy="690.3516" fill="#E2E2F0" rx="8" ry="8" style="stroke:#181818;stroke-width:0.5;"/><path d="M42.6719,698.3516 L42.6719,725.3516 M29.6719,706.3516 L55.6719,706.3516 M42.6719,725.3516 L29.6719,740.3516 M42.6719,725.3516 L55.6719,740.3516 " fill="none" style="stroke:#181818;stroke-width:0.5;"/><rect fill="#E2E2F0" height="30.2969" rx="2.5" ry="2.5" style="stroke:#181818;stroke-width:0.5;" width="42.2256" x="147.6802" y="50"/><text fill="#000000" font-family="sans-serif" font-size="14" lengthAdjust="spacing" textLength="28.2256" x="154.6802" y="69.9951">GVL</text><rect fill="#E2E2F0" height="30.2969" rx="2.5" ry="2.5" style="stroke:#181818;stroke-width:0.5;" width="42.2256" x="147.6802" y="665.5547"/><text fill="#000000" font-family="sans-serif" font-size="14" lengthAdjust="spacing" textLength="28.2256" x="154.6802" y="685.5498">GVL</text><rect fill="#E2E2F0" height="30.2969" rx="2.5" ry="2.5" style="stroke:#181818;stroke-width:0.5;" width="68.2568" x="461.5874" y="50"/><text fill="#000000" font-family="sans-serif" font-size="14" lengthAdjust="spacing" textLength="54.2568" x="468.5874" y="69.9951">Fill_Cup</text><rect fill="#E2E2F0" height="30.2969" rx="2.5" ry="2.5" style="stroke:#181818;stroke-width:0.5;" width="68.2568" x="461.5874" y="665.5547"/><text fill="#000000" font-family="sans-serif" font-size="14" lengthAdjust="spacing" textLength="54.2568" x="468.5874" y="685.5498">Fill_Cup</text><rect fill="#E2E2F0" height="30.2969" rx="2.5" ry="2.5" style="stroke:#181818;stroke-width:0.5;" width="75.3799" x="788.7002" y="50"/><text fill="#000000" font-family="sans-serif" font-size="14" lengthAdjust="spacing" textLength="61.3799" x="795.7002" y="69.9951">Cleaning</text><rect fill="#E2E2F0" height="30.2969" rx="2.5" ry="2.5" style="stroke:#181818;stroke-width:0.5;" width="75.3799" x="788.7002" y="665.5547"/><text fill="#000000" font-family="sans-serif" font-size="14" lengthAdjust="spacing" textLength="61.3799" x="795.7002" y="685.5498">Cleaning</text><rect fill="#EEEEEE" height="3" style="stroke:#EEEEEE;stroke-width:1.0;" width="869.0801" x="0" y="111.8633"/><line style="stroke:#000000;stroke-width:1.0;" x1="0" x2="869.0801" y1="111.8633" y2="111.8633"/><line style="stroke:#000000;stroke-width:1.0;" x1="0" x2="869.0801" y1="114.8633" y2="114.8633"/><rect fill="#EEEEEE" height="23.1328" style="stroke:#000000;stroke-width:2.0;" width="231.5786" x="318.7507" y="101.2969"/><text fill="#000000" font-family="sans-serif" font-size="13" font-weight="bold" lengthAdjust="spacing" textLength="213.0527" x="324.7507" y="117.3638">Start van kleine schoonmaak</text><polygon fill="#181818" points="156.793,151.5625,166.793,155.5625,156.793,159.5625,160.793,155.5625" style="stroke:#181818;stroke-width:1.0;"/><line style="stroke:#181818;stroke-width:1.0;" x1="42.6719" x2="162.793" y1="155.5625" y2="155.5625"/><text fill="#000000" font-family="sans-serif" font-size="13" lengthAdjust="spacing" textLength="102.1211" x="49.6719" y="150.4966">FillCup := TRUE</text><polygon fill="#181818" points="483.7158,180.6953,493.7158,184.6953,483.7158,188.6953,487.7158,184.6953" style="stroke:#181818;stroke-width:1.0;"/><line style="stroke:#181818;stroke-width:1.0;" x1="168.793" x2="489.7158" y1="184.6953" y2="184.6953"/><text fill="#000000" font-family="sans-serif" font-size="13" lengthAdjust="spacing" textLength="140.9878" x="175.793" y="179.6294">Activeer Fill_Cup taak</text><rect fill="#EEEEEE" height="3" style="stroke:#EEEEEE;stroke-width:1.0;" width="869.0801" x="0" y="213.2617"/><line style="stroke:#000000;stroke-width:1.0;" x1="0" x2="869.0801" y1="213.2617" y2="213.2617"/><line style="stroke:#000000;stroke-width:1.0;" x1="0" x2="869.0801" y1="216.2617" y2="216.2617"/><rect fill="#EEEEEE" height="23.1328" style="stroke:#000000;stroke-width:2.0;" width="149.9097" x="359.5852" y="202.6953"/><text fill="#000000" font-family="sans-serif" font-size="13" font-weight="bold" lengthAdjust="spacing" textLength="131.3838" x="365.5852" y="218.7622">Vullen van de kop</text><polygon fill="#181818" points="179.793,252.9609,169.793,256.9609,179.793,260.9609,175.793,256.9609" style="stroke:#181818;stroke-width:1.0;"/><line style="stroke:#181818;stroke-width:1.0;" x1="173.793" x2="494.7158" y1="256.9609" y2="256.9609"/><text fill="#000000" font-family="sans-serif" font-size="13" lengthAdjust="spacing" textLength="302.9229" x="185.793" y="251.895">Controleer Water_Warm en Ingredients_Ready</text><polygon fill="#181818" points="179.793,282.0938,169.793,286.0938,179.793,290.0938,175.793,286.0938" style="stroke:#181818;stroke-width:1.0;"/><line style="stroke:#181818;stroke-width:1.0;" x1="173.793" x2="494.7158" y1="286.0938" y2="286.0938"/><text fill="#000000" font-family="sans-serif" font-size="13" lengthAdjust="spacing" textLength="144.2378" x="185.793" y="281.0278">LampLoopOn := TRUE</text><rect fill="#EEEEEE" height="3" style="stroke:#EEEEEE;stroke-width:1.0;" width="869.0801" x="0" y="314.6602"/><line style="stroke:#000000;stroke-width:1.0;" x1="0" x2="869.0801" y1="314.6602" y2="314.6602"/><line style="stroke:#000000;stroke-width:1.0;" x1="0" x2="869.0801" y1="317.6602" y2="317.6602"/><rect fill="#EEEEEE" height="23.1328" style="stroke:#000000;stroke-width:2.0;" width="264.8149" x="302.1326" y="304.0938"/><text fill="#000000" font-family="sans-serif" font-size="13" font-weight="bold" lengthAdjust="spacing" textLength="246.2891" x="308.1326" y="320.1606">Activeren van kleine schoonmaak</text><polygon fill="#181818" points="814.3901,354.3594,824.3901,358.3594,814.3901,362.3594,818.3901,358.3594" style="stroke:#181818;stroke-width:1.0;"/><line style="stroke:#181818;stroke-width:1.0;" x1="495.7158" x2="820.3901" y1="358.3594" y2="358.3594"/><text fill="#000000" font-family="sans-serif" font-size="13" lengthAdjust="spacing" textLength="306.6743" x="502.7158" y="353.2935">Roep Cleaning functie aan (TypeCleaning := 2)</text><polygon fill="#181818" points="179.793,383.4922,169.793,387.4922,179.793,391.4922,175.793,387.4922" style="stroke:#181818;stroke-width:1.0;"/><line style="stroke:#181818;stroke-width:1.0;" x1="173.793" x2="825.3901" y1="387.4922" y2="387.4922"/><text fill="#000000" font-family="sans-serif" font-size="13" lengthAdjust="spacing" textLength="217.5151" x="185.793" y="382.4263">Reset schoonmaak gereed status</text><polygon fill="#181818" points="179.793,412.625,169.793,416.625,179.793,420.625,175.793,416.625" style="stroke:#181818;stroke-width:1.0;"/><line style="stroke:#181818;stroke-width:1.0;" x1="173.793" x2="825.3901" y1="416.625" y2="416.625"/><text fill="#000000" font-family="sans-serif" font-size="13" lengthAdjust="spacing" textLength="118.4028" x="185.793" y="411.5591">CleaningStep := 0</text><rect fill="#EEEEEE" height="3" style="stroke:#EEEEEE;stroke-width:1.0;" width="869.0801" x="0" y="445.1914"/><line style="stroke:#000000;stroke-width:1.0;" x1="0" x2="869.0801" y1="445.1914" y2="445.1914"/><line style="stroke:#000000;stroke-width:1.0;" x1="0" x2="869.0801" y1="448.1914" y2="448.1914"/><rect fill="#EEEEEE" height="23.1328" style="stroke:#000000;stroke-width:2.0;" width="171.1108" x="348.9846" y="434.625"/><text fill="#000000" font-family="sans-serif" font-size="13" font-weight="bold" lengthAdjust="spacing" textLength="152.585" x="354.9846" y="450.6919">Schoonmaakstappen</text><polygon fill="#181818" points="179.793,484.8906,169.793,488.8906,179.793,492.8906,175.793,488.8906" style="stroke:#181818;stroke-width:1.0;"/><line style="stroke:#181818;stroke-width:1.0;" x1="173.793" x2="825.3901" y1="488.8906" y2="488.8906"/><text fill="#000000" font-family="sans-serif" font-size="13" lengthAdjust="spacing" textLength="243.0708" x="185.793" y="483.8247">Voer stap 1 uit (Spoel koffieresiduen)</text><polygon fill="#181818" points="179.793,514.0234,169.793,518.0234,179.793,522.0234,175.793,518.0234" style="stroke:#181818;stroke-width:1.0;"/><line style="stroke:#181818;stroke-width:1.0;" x1="173.793" x2="825.3901" y1="518.0234" y2="518.0234"/><text fill="#000000" font-family="sans-serif" font-size="13" lengthAdjust="spacing" textLength="247.2222" x="185.793" y="512.9575">Voer stap 2 uit (Spoel waterleidingen)</text><polygon fill="#181818" points="179.793,543.1563,169.793,547.1563,179.793,551.1563,175.793,547.1563" style="stroke:#181818;stroke-width:1.0;"/><line style="stroke:#181818;stroke-width:1.0;" x1="173.793" x2="825.3901" y1="547.1563" y2="547.1563"/><text fill="#000000" font-family="sans-serif" font-size="13" lengthAdjust="spacing" textLength="227.1509" x="185.793" y="542.0903">Voer stap 3 uit (Reinig opvangbak)</text><rect fill="#EEEEEE" height="3" style="stroke:#EEEEEE;stroke-width:1.0;" width="869.0801" x="0" y="575.7227"/><line style="stroke:#000000;stroke-width:1.0;" x1="0" x2="869.0801" y1="575.7227" y2="575.7227"/><line style="stroke:#000000;stroke-width:1.0;" x1="0" x2="869.0801" y1="578.7227" y2="578.7227"/><rect fill="#EEEEEE" height="23.1328" style="stroke:#000000;stroke-width:2.0;" width="155.3179" x="356.8811" y="565.1563"/><text fill="#000000" font-family="sans-serif" font-size="13" font-weight="bold" lengthAdjust="spacing" textLength="136.792" x="362.8811" y="581.2231">Einde schoonmaak</text><polygon fill="#181818" points="179.793,615.4219,169.793,619.4219,179.793,623.4219,175.793,619.4219" style="stroke:#181818;stroke-width:1.0;"/><line style="stroke:#181818;stroke-width:1.0;" x1="173.793" x2="825.3901" y1="619.4219" y2="619.4219"/><text fill="#000000" font-family="sans-serif" font-size="13" lengthAdjust="spacing" textLength="149.4365" x="185.793" y="614.356">CleaningDone := TRUE</text><polygon fill="#181818" points="483.7158,644.5547,493.7158,648.5547,483.7158,652.5547,487.7158,648.5547" style="stroke:#181818;stroke-width:1.0;"/><line style="stroke:#181818;stroke-width:1.0;" x1="168.793" x2="489.7158" y1="648.5547" y2="648.5547"/><text fill="#000000" font-family="sans-serif" font-size="13" lengthAdjust="spacing" textLength="192.8799" x="175.793" y="643.4888">Bevestig schoonmaak gereed</text><!--SRC=[XL9BIyD04BxdLmoUseEWzHQ8eBKMeI2ahsEP9jEuPBkxx4ug_VTEKXDQO_KuZ-yntovcR3qi0td003TJslfAbUHl8eUULQOS6eRfQdPHlogjD-FANJJ7cj0eKqHHai2SPG87D51gKeOWP1_McZrY2KaIDOAtZpLntB096SG9BDBb999cFMj5OdZAM1r846qBM7WQdLMbDPb6A2SehQlPkxLMOMmDUwjhYZKo-SqQ_Hu4zsOAJxaYms6J4kR7FdQ6UpUprhsRpc0jVFBalxL_FVASgWqdXjIIwqhOLKQ825181ekZesuYOgDXr9MjdPG2yRbG8IOeXy38LUZljuqvKvFmtUbvEhpWd9Chn6yFkx8IMBq0zr0fXi7SMTAIycwdH3Mel28p_0itEiTzrj5BKBdi_eDxEE5IILKLO9raN6on73Rc9yhaFxE-UlUBbNUv-hEUwK21HQ8Nw1S0]--></g></svg>