<svg xmlns="http://www.w3.org/2000/svg" xmlns:xlink="http://www.w3.org/1999/xlink" contentStyleType="text/css" height="284px" preserveAspectRatio="none" style="width:361px;height:284px;background:#FFFFFF;" version="1.1" viewBox="0 0 361 284" width="361px" zoomAndPan="magnify"><defs/><g><path d="M19.5,7 L335.7529,7 A12.5,12.5 0 0 1 348.2529,19.5 L348.2529,33.2969 L7,33.2969 L7,19.5 A12.5,12.5 0 0 1 19.5,7 " fill="#F1F1F1" style="stroke:#F1F1F1;stroke-width:1.0;"/><rect fill="none" height="271.8013" rx="12.5" ry="12.5" style="stroke:#181818;stroke-width:0.5;" width="341.2529" x="7" y="7"/><line style="stroke:#181818;stroke-width:0.5;" x1="7" x2="348.2529" y1="33.2969" y2="33.2969"/><text fill="#000000" font-family="sans-serif" font-size="14" lengthAdjust="spacing" textLength="105.6426" x="124.8052" y="24.9951">Show_Strength</text><ellipse cx="117.04" cy="54.2969" fill="#222222" rx="10" ry="10" style="stroke:#222222;stroke-width:1.0;"/><g id="Show_Strength.Idle"><rect fill="#F1F1F1" height="50.2656" rx="12.5" ry="12.5" style="stroke:#181818;stroke-width:0.5;" width="159.2305" x="37.42" y="101.2969"/><line style="stroke:#181818;stroke-width:0.5;" x1="37.42" x2="196.6505" y1="127.5938" y2="127.5938"/><text fill="#000000" font-family="sans-serif" font-size="14" lengthAdjust="spacing" textLength="25.5186" x="104.276" y="119.292">Idle</text><text fill="#000000" font-family="sans-serif" font-size="12" lengthAdjust="spacing" textLength="139.2305" x="42.42" y="143.7324">ShowStrength = FALSE</text></g><g id="Show_Strength.Showing"><rect fill="#F1F1F1" height="64.2344" rx="12.5" ry="12.5" style="stroke:#181818;stroke-width:0.5;" width="196.0742" x="19" y="204.5669"/><line style="stroke:#181818;stroke-width:0.5;" x1="19" x2="215.0742" y1="230.8637" y2="230.8637"/><text fill="#000000" font-family="sans-serif" font-size="14" lengthAdjust="spacing" textLength="59.4248" x="87.3247" y="222.562">Showing</text><text fill="#000000" font-family="sans-serif" font-size="12" lengthAdjust="spacing" textLength="176.0742" x="24" y="247.0024">Reset Lamp1, Lamp2, Lamp3</text><text fill="#000000" font-family="sans-serif" font-size="12" lengthAdjust="spacing" textLength="171.6504" x="24" y="260.9712">Set Lamp based on Strength</text></g><!--link *start*Show_Strength to Idle--><g id="link_*start*Show_Strength_Idle"><path d="M117.04,64.7569 C117.04,74.0269 117.04,82.5569 117.04,95.0669 " fill="none" id="*start*Show_Strength-to-Idle" style="stroke:#181818;stroke-width:1.0;"/><polygon fill="#181818" points="117.04,101.0669,121.04,92.0669,117.04,96.0669,113.04,92.0669,117.04,101.0669" style="stroke:#181818;stroke-width:1.0;"/></g><!--link Idle to Showing--><g id="link_Idle_Showing"><path d="M49.72,151.8869 C43.14,156.7869 37.32,162.6169 33.04,169.5669 C24.85,182.8269 26.405,190.746 38.475,200.456 " fill="none" id="Idle-to-Showing" style="stroke:#181818;stroke-width:1.0;"/><polygon fill="#181818" points="43.15,204.2169,38.6448,195.4588,39.2542,201.0828,33.6302,201.6922,43.15,204.2169" style="stroke:#181818;stroke-width:1.0;"/><text fill="#000000" font-family="sans-serif" font-size="13" lengthAdjust="spacing" textLength="145.4565" x="34.04" y="182.6338">ShowStrength = TRUE</text></g><!--link Showing to Idle--><g id="link_Showing_Idle"><path d="M170.63,204.2069 C180.97,194.0569 186.76,182.1469 180.04,169.5669 C176.44,162.8269 175.8103,160.8743 169.9203,155.8643 " fill="none" id="Showing-to-Idle" style="stroke:#181818;stroke-width:1.0;"/><polygon fill="#181818" points="165.35,151.9769,169.6138,160.8549,169.1586,155.2164,174.7971,154.7612,165.35,151.9769" style="stroke:#181818;stroke-width:1.0;"/><text fill="#000000" font-family="sans-serif" font-size="13" lengthAdjust="spacing" textLength="155.2129" x="183.04" y="182.6338">ShowStrength := FALSE</text></g><!--SRC=[Aov9B4bLK0hEo2-F3oufIirBBybGKaWiLa0HKQZcKW22QArO1LrTEmNFb9nKi028eM05LWjNQglWvkWJxCg5K03I0bAIcPUEgJWaADGLh1IX8YYrEBL4mISnjy1G1qmPGIZZcBnWg8H2Kc9nQef2Vfu2p2Wk54DWhaItpmhckbe0]--></g></svg>