<svg xmlns="http://www.w3.org/2000/svg" xmlns:xlink="http://www.w3.org/1999/xlink" contentStyleType="text/css" height="900px" preserveAspectRatio="none" style="width:512px;height:900px;background:#FFFFFF;" version="1.1" viewBox="0 0 512 900" width="512px" zoomAndPan="magnify"><defs/><g><path d="M19.5,7 L486.0944,7 A12.5,12.5 0 0 1 498.5944,19.5 L498.5944,33.2969 L7,33.2969 L7,19.5 A12.5,12.5 0 0 1 19.5,7 " fill="#F1F1F1" style="stroke:#F1F1F1;stroke-width:1.0;"/><rect fill="none" height="887.9712" rx="12.5" ry="12.5" style="stroke:#181818;stroke-width:0.5;" width="491.5944" x="7" y="7"/><line style="stroke:#181818;stroke-width:0.5;" x1="7" x2="498.5944" y1="33.2969" y2="33.2969"/><text fill="#000000" font-family="sans-serif" font-size="14" lengthAdjust="spacing" textLength="61.3799" x="222.1072" y="24.9951">Cleaning</text><ellipse cx="211.63" cy="54.2969" fill="#222222" rx="10" ry="10" style="stroke:#222222;stroke-width:1.0;"/><g id="Cleaning.Init"><rect fill="#F1F1F1" height="78.2031" rx="12.5" ry="12.5" style="stroke:#181818;stroke-width:0.5;" width="162.9043" x="130.18" y="101.2969"/><line style="stroke:#181818;stroke-width:0.5;" x1="130.18" x2="293.0843" y1="127.5938" y2="127.5938"/><text fill="#000000" font-family="sans-serif" font-size="14" lengthAdjust="spacing" textLength="22.3809" x="200.4417" y="119.292">Init</text><text fill="#000000" font-family="sans-serif" font-size="12" lengthAdjust="spacing" textLength="111.334" x="135.18" y="143.7324">Cleaning := FALSE</text><text fill="#000000" font-family="sans-serif" font-size="12" lengthAdjust="spacing" textLength="109.2949" x="135.18" y="157.7012">CleaningStep := 0</text><text fill="#000000" font-family="sans-serif" font-size="12" lengthAdjust="spacing" textLength="142.9043" x="135.18" y="171.6699">CleaningDone := FALSE</text></g><g id="Cleaning.Step1"><rect fill="#F1F1F1" height="50.2656" rx="12.5" ry="12.5" style="stroke:#181818;stroke-width:0.5;" width="162.6699" x="130.29" y="232.4969"/><line style="stroke:#181818;stroke-width:0.5;" x1="130.29" x2="292.9599" y1="258.7937" y2="258.7937"/><text fill="#000000" font-family="sans-serif" font-size="14" lengthAdjust="spacing" textLength="40.7832" x="191.2334" y="250.492">Step1</text><text fill="#000000" font-family="sans-serif" font-size="12" lengthAdjust="spacing" textLength="142.6699" x="135.29" y="274.9324">Stap 1 (Begin reiniging)</text></g><g id="Cleaning.Step2"><rect fill="#F1F1F1" height="50.2656" rx="12.5" ry="12.5" style="stroke:#181818;stroke-width:0.5;" width="161.1406" x="131.06" y="335.7669"/><line style="stroke:#181818;stroke-width:0.5;" x1="131.06" x2="292.2006" y1="362.0637" y2="362.0637"/><text fill="#000000" font-family="sans-serif" font-size="14" lengthAdjust="spacing" textLength="40.7832" x="191.2387" y="353.762">Step2</text><text fill="#000000" font-family="sans-serif" font-size="12" lengthAdjust="spacing" textLength="141.1406" x="136.06" y="378.2024">Stap 2 (Spoel residuen)</text></g><g id="Cleaning.Step3"><rect fill="#F1F1F1" height="64.2344" rx="12.5" ry="12.5" style="stroke:#181818;stroke-width:0.5;" width="202.748" x="110.26" y="439.0269"/><line style="stroke:#181818;stroke-width:0.5;" x1="110.26" x2="313.008" y1="465.3237" y2="465.3237"/><text fill="#000000" font-family="sans-serif" font-size="14" lengthAdjust="spacing" textLength="40.7832" x="191.2424" y="457.022">Step3</text><text fill="#000000" font-family="sans-serif" font-size="12" lengthAdjust="spacing" textLength="182.748" x="115.26" y="481.4624">Stap 3 (Reinig waterleidingen)</text><text fill="#000000" font-family="sans-serif" font-size="12" lengthAdjust="spacing" textLength="155.9766" x="115.26" y="495.4312">(TypeCleaning == 1 only)</text></g><g id="Cleaning.Step4"><rect fill="#F1F1F1" height="64.2344" rx="12.5" ry="12.5" style="stroke:#181818;stroke-width:0.5;" width="231.2598" x="19" y="571.2669"/><line style="stroke:#181818;stroke-width:0.5;" x1="19" x2="250.2598" y1="597.5637" y2="597.5637"/><text fill="#000000" font-family="sans-serif" font-size="14" lengthAdjust="spacing" textLength="40.7832" x="114.2383" y="589.262">Step4</text><text fill="#000000" font-family="sans-serif" font-size="12" lengthAdjust="spacing" textLength="211.2598" x="24" y="613.7024">Stap 4 (Reinig koffiedikopvangbak)</text><text fill="#000000" font-family="sans-serif" font-size="12" lengthAdjust="spacing" textLength="155.9766" x="24" y="627.6712">(TypeCleaning == 1 only)</text></g><g id="Cleaning.Step5"><rect fill="#F1F1F1" height="64.2344" rx="12.5" ry="12.5" style="stroke:#181818;stroke-width:0.5;" width="194.9141" x="39.17" y="703.4969"/><line style="stroke:#181818;stroke-width:0.5;" x1="39.17" x2="234.0841" y1="729.7937" y2="729.7937"/><text fill="#000000" font-family="sans-serif" font-size="14" lengthAdjust="spacing" textLength="40.7832" x="116.2354" y="721.492">Step5</text><text fill="#000000" font-family="sans-serif" font-size="12" lengthAdjust="spacing" textLength="174.9141" x="44.17" y="745.9324">Stap 5 (Reinig oppervlakken)</text><text fill="#000000" font-family="sans-serif" font-size="12" lengthAdjust="spacing" textLength="155.9766" x="44.17" y="759.9012">(TypeCleaning == 1 only)</text></g><g id="Cleaning.Done"><rect fill="#F1F1F1" height="64.2344" rx="12.5" ry="12.5" style="stroke:#181818;stroke-width:0.5;" width="157.9414" x="132.66" y="820.7369"/><line style="stroke:#181818;stroke-width:0.5;" x1="132.66" x2="290.6014" y1="847.0337" y2="847.0337"/><text fill="#000000" font-family="sans-serif" font-size="14" lengthAdjust="spacing" textLength="36.832" x="193.2147" y="838.732">Done</text><text fill="#000000" font-family="sans-serif" font-size="12" lengthAdjust="spacing" textLength="137.9414" x="137.66" y="863.1724">CleaningDone := TRUE</text><text fill="#000000" font-family="sans-serif" font-size="12" lengthAdjust="spacing" textLength="106.3711" x="137.66" y="877.1412">Cleaning := TRUE</text></g><!--link *start*Cleaning to Init--><g id="link_*start*Cleaning_Init"><path d="M211.63,64.6169 C211.63,73.5169 211.63,81.5169 211.63,95.0269 " fill="none" id="*start*Cleaning-to-Init" style="stroke:#181818;stroke-width:1.0;"/><polygon fill="#181818" points="211.63,101.0269,215.63,92.0269,211.63,96.0269,207.63,92.0269,211.63,101.0269" style="stroke:#181818;stroke-width:1.0;"/></g><!--link Init to Step1--><g id="link_Init_Step1"><path d="M211.63,179.7669 C211.63,197.0569 211.63,210.9469 211.63,226.1669 " fill="none" id="Init-to-Step1" style="stroke:#181818;stroke-width:1.0;"/><polygon fill="#181818" points="211.63,232.1669,215.63,223.1669,211.63,227.1669,207.63,223.1669,211.63,232.1669" style="stroke:#181818;stroke-width:1.0;"/><text fill="#000000" font-family="sans-serif" font-size="13" lengthAdjust="spacing" textLength="275.9644" x="212.63" y="210.5638">TypeCleaning == 1 or TypeCleaning == 2</text></g><!--link Step1 to Step2--><g id="link_Step1_Step2"><path d="M211.63,283.1469 C211.63,299.0669 211.63,313.7369 211.63,329.6069 " fill="none" id="Step1-to-Step2" style="stroke:#181818;stroke-width:1.0;"/><polygon fill="#181818" points="211.63,335.6069,215.63,326.6069,211.63,330.6069,207.63,326.6069,211.63,335.6069" style="stroke:#181818;stroke-width:1.0;"/><text fill="#000000" font-family="sans-serif" font-size="13" lengthAdjust="spacing" textLength="129.3525" x="212.63" y="313.8338">Timer &gt;= WaitTime</text></g><!--link Step2 to Step3--><g id="link_Step2_Step3"><path d="M211.63,386.4569 C211.63,401.9269 211.63,416.0469 211.63,432.6769 " fill="none" id="Step2-to-Step3" style="stroke:#181818;stroke-width:1.0;"/><polygon fill="#181818" points="211.63,438.6769,215.63,429.6769,211.63,433.6769,207.63,429.6769,211.63,438.6769" style="stroke:#181818;stroke-width:1.0;"/><text fill="#000000" font-family="sans-serif" font-size="13" lengthAdjust="spacing" textLength="129.3525" x="212.63" y="417.0938">Timer &gt;= WaitTime</text></g><!--link Step3 to Step4--><g id="link_Step3_Step4"><path d="M156.13,503.5669 C150.46,508.8069 145.41,514.7069 141.63,521.2669 C133.09,536.0869 130.9692,549.0176 131.2092,564.8676 " fill="none" id="Step3-to-Step4" style="stroke:#181818;stroke-width:1.0;"/><polygon fill="#181818" points="131.3,570.8669,135.1633,561.8073,131.2243,565.8674,127.1642,561.9285,131.3,570.8669" style="stroke:#181818;stroke-width:1.0;"/><text fill="#000000" font-family="sans-serif" font-size="13" lengthAdjust="spacing" textLength="129.3525" x="142.63" y="534.3338">Timer &gt;= WaitTime</text><text fill="#000000" font-family="sans-serif" font-size="13" lengthAdjust="spacing" textLength="127.2007" x="143.7059" y="549.4666">TypeCleaning == 1</text></g><!--link Step4 to Step5--><g id="link_Step4_Step5"><path d="M133.61,635.9769 C133.29,650.9869 133.13,669.1669 133.63,685.4969 C133.8,691.2169 133.7538,691.3163 134.0838,697.1963 " fill="none" id="Step4-to-Step5" style="stroke:#181818;stroke-width:1.0;"/><polygon fill="#181818" points="134.42,703.1869,137.9094,693.9769,134.1398,698.1947,129.922,694.4252,134.42,703.1869" style="stroke:#181818;stroke-width:1.0;"/><text fill="#000000" font-family="sans-serif" font-size="13" lengthAdjust="spacing" textLength="129.3525" x="134.63" y="666.5638">Timer &gt;= WaitTime</text><text fill="#000000" font-family="sans-serif" font-size="13" lengthAdjust="spacing" textLength="127.2007" x="135.7059" y="681.6966">TypeCleaning == 1</text></g><!--link Step3 to Done--><g id="link_Step3_Done"><path d="M260,503.5569 C265.08,508.8469 269.52,514.7669 272.63,521.2669 C326.64,634.0969 326.64,689.8969 272.63,802.7369 C269.52,809.2369 269.2359,810.8192 264.1559,816.1092 " fill="none" id="Step3-to-Done" style="stroke:#181818;stroke-width:1.0;"/><polygon fill="#181818" points="260,820.4369,269.1189,816.716,263.4632,816.8305,263.3487,811.1748,260,820.4369" style="stroke:#181818;stroke-width:1.0;"/><text fill="#000000" font-family="sans-serif" font-size="13" lengthAdjust="spacing" textLength="129.3525" x="313.63" y="666.5638">Timer &gt;= WaitTime</text><text fill="#000000" font-family="sans-serif" font-size="13" lengthAdjust="spacing" textLength="127.2007" x="314.7059" y="681.6966">TypeCleaning == 2</text></g><!--link Step5 to Done--><g id="link_Step5_Done"><path d="M133.57,768.1969 C133.81,779.7069 135.77,792.4269 141.63,802.7369 C145.37,809.3169 145.9971,811.1507 151.6571,816.3907 " fill="none" id="Step5-to-Done" style="stroke:#181818;stroke-width:1.0;"/><polygon fill="#181818" points="156.06,820.4669,152.1731,811.4174,152.391,817.0701,146.7383,817.2879,156.06,820.4669" style="stroke:#181818;stroke-width:1.0;"/><text fill="#000000" font-family="sans-serif" font-size="13" lengthAdjust="spacing" textLength="129.3525" x="142.63" y="798.8038">Timer &gt;= WaitTime</text></g><!--SRC=[bPBDQiCm48JlUOeb9xSGQ6Jx4d2Wlr3eAKxfeSv1nHiZxAw4hAQ4qdUlv5HoS498V9A6sM_6Obl33SBula5EWgeny1Ry1Nv6OB_twnLC9dDu9c4wmHrWrjjc6JpTlkIF1NafDwYSVDDB3v8mE3jCpt9qDpArrELMOI1d6Kn1wWEHTRD-93TSMLzqXvKWq2X8s4DrrQVid3w6kHZnYHhc6RnnOTmb-9WdCeXo9R6nn5QKNqW380l0-2Gmzi0OeaLN3hxje-i6HMbhMcv1qP7VfcOxI8n3Od8iiQ03IXXDV8aabAZbUYsm5BLK6qxL1w_FBfA48kcbHL9V90r5f5AeDmslwulVOhTLvpHWUmrEJVOf_uxX0YyNhtkRxfNHxny0]--></g></svg>